<?xml version="1.0" encoding="utf-8"?>
<!-- Generator: Adobe Illustrator 25.3.1, SVG Export Plug-In . SVG Version: 6.00 Build 0)  -->
<svg version="1.1" id="Layer_1" xmlns="http://www.w3.org/2000/svg" xmlns:xlink="http://www.w3.org/1999/xlink" x="0px" y="0px"
	 viewBox="0 0 40 50" style="enable-background:new 0 0 40 50;" xml:space="preserve">
<style type="text/css">
	.st0{fill:none;stroke:#AAAAAA;stroke-width:1.5;stroke-linecap:round;stroke-miterlimit:10;}
	.st1{fill:#AAAAAA;}
</style>
<path class="st1" d="M20.48,2.22l-1.46,19.14l-8.2-11.91c-0.39-0.57-1.17-0.72-1.74-0.32c-0.57,0.39-0.71,1.18-0.32,1.74l7.92,11.51
	l-7.49-2.87c-0.65-0.25-1.37,0.08-1.62,0.72c-0.25,0.65,0.08,1.37,0.72,1.62l8.69,3.33L2.57,32.84c-0.61,0.32-0.84,1.09-0.52,1.7
	c0.33,0.61,1.09,0.84,1.7,0.52l14.83-7.88l-1.56,20.41c-0.05,0.69,0.46,1.29,1.16,1.35c0.69,0.05,1.29-0.46,1.35-1.16l1.46-19.14
	l8.2,11.91c0.39,0.57,1.17,0.72,1.74,0.32c0.44-0.3,0.62-0.82,0.51-1.31c-0.03-0.15-0.1-0.3-0.19-0.43l-7.92-11.51l7.49,2.87
	c0.65,0.25,1.37-0.08,1.62-0.72c0.09-0.24,0.11-0.49,0.05-0.72c-0.09-0.4-0.37-0.74-0.78-0.9l-8.69-3.33l14.41-7.66
	c0.51-0.27,0.76-0.85,0.64-1.38c-0.02-0.11-0.06-0.21-0.12-0.31c-0.33-0.61-1.09-0.85-1.7-0.52l-14.83,7.88l1.56-20.41
	c0.01-0.13,0-0.25-0.03-0.37c-0.12-0.52-0.57-0.93-1.13-0.97C21.14,1.01,20.54,1.53,20.48,2.22z"/>
</svg>
